{"title":"Spring.Breakers.2013.BRRip.XviD-LoTTo","uid":8603188,"size":2308981974,"categoryP":"video","categoryS":"movies","magnet":"?xt=urn:btih:2c7ba116bfb592ea44cdf588d84cf0b442769b98&amp;dn=Spring.Breakers.2013.BRRip.XviD-LoTTo&amp;tr=udp%3A%2F%2Ftracker.openbittorrent.com%3A80&amp;tr=udp%3A%2F%2Fopen.demonii.com%3A1337&amp;tr=udp%3A%2F%2Ftracker.coppersurfer.tk%3A6969&amp;tr=udp%3A%2F%2Fexodus.desync.com%3A6969","seeders":4,"leechers":0,"uploader":"xxxlavalxxx","files":3,"time":1371938474,"description":"\n\n &lt;a href=&quot;\nhttp://www.imdb.com/title/tt2101441/&quot; rel=&quot;nofollow&quot; target=&quot;_NEW&quot;&gt;\nhttp://www.imdb.com/title/tt2101441/&lt;/a&gt;\n\n\nFour college girls who land in jail after robbing a restaurant in order to fund their spring break vacation find themselves bailed out by a drug and arms dealer who wants them to do some dirty work. \n\n\n\nDirector:\n Harmony Korine \n\nWriter:\n Harmony Korine (screenplay) \n\nStars:\n Selena Gomez, Vanessa Hudgens, Ashley Benson\n\nGenres:\n  Comedy |  Drama \n\n\n\nFormat                                   : AVI\nFormat/Info                              : Audio Video Interleave\nFormat profile                           : OpenDML\nFile size                                : 2.15 GiB\nDuration                                 : 1h 33mn\nOverall bit rate                         : 3 293 Kbps\nWriting application                      : Lavf54.6.100\n\nVideo\nID                                       : 0\nFormat                                   : xvid\nCodec ID                                 : xvid\nDuration                                 : 1h 33mn\nBit rate                                 : 2 982 Kbps\nWidth                                    : 640 pixels\nHeight                                   : 480 pixels\nDisplay aspect ratio                     : 2.35:1\nFrame rate                               : 25.000 fps\nBits/(Pixel*Frame)                       : 0.388\nStream size                              : 1.95 GiB (91%)\n\nAudio\nID                                       : 1\nFormat                                   : MPEG Audio\nFormat version                           : Version 1\nFormat profile                           : Layer 3\nMode                                     : Joint stereo\nMode extension                           : MS Stereo\nCodec ID                                 : 55\nCodec ID/Hint                            : MP3\nDuration                                 : 1h 27mn\nBit rate mode                            : Constant\nBit rate                                 : 320 Kbps\nChannel(s)                               : 2 channels\nSampling rate                            : 48.0 KHz\nCompression mode                         : Lossy\nStream size                              : 200 MiB (9%)\nAlignment                                : Aligned on interleaves\nInterleave, duration                     : 26 ms (0.64 video frame)\nInterleave, preload duration             : 48 ms\nWriting library                          : LAME3.98.4\n\n\n\n\n\n\n    &lt;a href=&quot;\thttp://addpix.net/viewer.php?file=46971430130243155436.jpg&quot; rel=&quot;nofollow&quot; target=&quot;_NEW&quot;&gt;\thttp://addpix.net/viewer.php?file=46971430130243155436.jpg&lt;/a&gt;\n    &lt;a href=&quot;\thttp://addpix.net/viewer.php?file=23457974003270274800.jpg&quot; rel=&quot;nofollow&quot; target=&quot;_NEW&quot;&gt;\thttp://addpix.net/viewer.php?file=23457974003270274800.jpg&lt;/a&gt;\n    &lt;a href=&quot;\thttp://addpix.net/viewer.php?file=07761594284502030018.jpg&quot; rel=&quot;nofollow&quot; target=&quot;_NEW&quot;&gt;\thttp://addpix.net/viewer.php?file=07761594284502030018.jpg&lt;/a&gt;\n    &lt;a href=&quot;\thttp://addpix.net/viewer.php?file=73783132026809520352.jpg&quot; rel=&quot;nofollow&quot; target=&quot;_NEW&quot;&gt;\thttp://addpix.net/viewer.php?file=73783132026809520352.jpg&lt;/a&gt;\n    &lt;a href=&quot;\thttp://addpix.net/viewer.php?file=35391024280196031504.jpg&quot; rel=&quot;nofollow&quot; target=&quot;_NEW&quot;&gt;\thttp://addpix.net/viewer.php?file=35391024280196031504.jpg&lt;/a&gt;","torrent":{"xt":"urn:btih:2c7ba116bfb592ea44cdf588d84cf0b442769b98","amp;dn":"Spring.Breakers.2013.BRRip.XviD-LoTTo","amp;tr":["udp%3A%2F%2Ftracker.openbittorrent.com%3A80","udp%3A%2F%2Fopen.demonii.com%3A1337","udp%3A%2F%2Ftracker.coppersurfer.tk%3A6969","udp%3A%2F%2Fexodus.desync.com%3A6969"],"infoHash":"2c7ba116bfb592ea44cdf588d84cf0b442769b98","infoHashBuffer":{"type":"Buffer","data":[44,123,161,22,191,181,146,234,68,205,245,136,216,76,240,180,66,118,155,152]},"announce":[],"urlList":[]}}